<svg xmlns="http://www.w3.org/2000/svg" viewBox="0 0 660 660">
  <defs>
    <linearGradient id="bg3" x1="0%" y1="0%" x2="100%" y2="100%">
      <stop offset="0%" stop-color="#0A1628"/>
      <stop offset="100%" stop-color="#0D1F3C"/>
    </linearGradient>
  </defs>
  <rect width="660" height="660" fill="url(#bg3)"/>
  <text x="330" y="50" text-anchor="middle" font-family="Arial, sans-serif" font-size="22" fill="#FFFFFF" font-weight="700" letter-spacing="4">WAIC 2026</text>
  <text x="330" y="75" text-anchor="middle" font-family="Arial, sans-serif" font-size="14" fill="#00D4FF" letter-spacing="6">九大看点</text>
  <line x1="180" y1="90" x2="480" y2="90" stroke="#00D4FF" stroke-opacity="0.3" stroke-width="1"/>
  <!-- Row 1 -->
  <g>
    <rect x="30" y="105" width="160" height="150" rx="8" fill="#111827" stroke="#00D4FF" stroke-opacity="0.2"/>
    <rect x="30" y="105" width="160" height="40" rx="8" fill="#00D4FF" fill-opacity="0.1"/>
    <text x="110" y="130" text-anchor="middle" font-family="Arial, sans-serif" font-size="11" fill="#00D4FF" letter-spacing="2">01</text>
    <g transform="translate(70, 145)" fill="none" stroke="#00D4FF" stroke-width="2" stroke-linecap="round">
      <rect x="0" y="0" width="80" height="60" rx="4" stroke-opacity="0.8"/>
      <line x1="0" y1="20" x2="80" y2="20" stroke-opacity="0.4"/><line x1="0" y1="40" x2="80" y2="40" stroke-opacity="0.4"/>
      <line x1="20" y1="0" x2="20" y2="60" stroke-opacity="0.4"/><line x1="40" y1="0" x2="40" y2="60" stroke-opacity="0.4"/><line x1="60" y1="0" x2="60" y2="60" stroke-opacity="0.4"/>
    </g>
    <text x="110" y="230" text-anchor="middle" font-family="Arial, sans-serif" font-size="13" fill="#FFFFFF" font-weight="600">展览规模</text>
    <text x="110" y="248" text-anchor="middle" font-family="Arial, sans-serif" font-size="10" fill="#00D4FF" opacity="0.7">创历届之最</text>
  </g>
  <g>
    <rect x="250" y="105" width="160" height="150" rx="8" fill="#111827" stroke="#00D4FF" stroke-opacity="0.2"/>
    <rect x="250" y="105" width="160" height="40" rx="8" fill="#00D4FF" fill-opacity="0.1"/>
    <text x="330" y="130" text-anchor="middle" font-family="Arial, sans-serif" font-size="11" fill="#00D4FF" letter-spacing="2">02</text>
    <g transform="translate(290, 145)" fill="none" stroke="#00D4FF" stroke-width="2" stroke-linecap="round">
      <rect x="0" y="30" width="80" height="30" rx="4"/>
      <rect x="5" y="5" width="30" height="25" rx="3"/>
      <rect x="45" y="5" width="30" height="25" rx="3"/>
      <line x1="20" y1="5" x2="20" y2="30" stroke-opacity="0.4"/><line x1="60" y1="5" x2="60" y2="30" stroke-opacity="0.4"/>
    </g>
    <text x="330" y="230" text-anchor="middle" font-family="Arial, sans-serif" font-size="13" fill="#FFFFFF" font-weight="600">大模型</text>
    <text x="330" y="248" text-anchor="middle" font-family="Arial, sans-serif" font-size="10" fill="#00D4FF" opacity="0.7">军备竞赛升级</text>
  </g>
  <g>
    <rect x="470" y="105" width="160" height="150" rx="8" fill="#111827" stroke="#00D4FF" stroke-opacity="0.2"/>
    <rect x="470" y="105" width="160" height="40" rx="8" fill="#00D4FF" fill-opacity="0.1"/>
    <text x="550" y="130" text-anchor="middle" font-family="Arial, sans-serif" font-size="11" fill="#00D4FF" letter-spacing="2">03</text>
    <g transform="translate(510, 145)" fill="none" stroke="#00D4FF" stroke-width="2" stroke-linecap="round">
      <circle cx="40" cy="20" r="16"/><circle cx="34" cy="17" r="3" fill="#00D4FF"/><circle cx="46" cy="17" r="3" fill="#00D4FF"/>
      <path d="M34 26 Q40 32 46 26"/>
      <line x1="40" y1="36" x2="40" y2="55"/><line x1="25" y1="45" x2="55" y2="45"/>
      <line x1="30" y1="55" x2="25" y2="65"/><line x1="50" y1="55" x2="55" y2="65"/>
    </g>
    <text x="550" y="230" text-anchor="middle" font-family="Arial, sans-serif" font-size="13" fill="#FFFFFF" font-weight="600">具身智能</text>
    <text x="550" y="248" text-anchor="middle" font-family="Arial, sans-serif" font-size="10" fill="#00D4FF" opacity="0.7">人形机器人爆发</text>
  </g>
  <!-- Row 2 -->
  <g>
    <rect x="30" y="280" width="160" height="150" rx="8" fill="#111827" stroke="#00D4FF" stroke-opacity="0.2"/>
    <rect x="30" y="280" width="160" height="40" rx="8" fill="#00D4FF" fill-opacity="0.1"/>
    <text x="110" y="305" text-anchor="middle" font-family="Arial, sans-serif" font-size="11" fill="#00D4FF" letter-spacing="2">04</text>
    <g transform="translate(70, 320)" fill="none" stroke="#00D4FF" stroke-width="2" stroke-linecap="round">
      <rect x="10" y="0" width="60" height="60" rx="4"/>
      <line x1="10" y1="15" x2="70" y2="15"/>
      <rect x="20" y="20" width="15" height="12" rx="2" fill="#00D4FF" fill-opacity="0.4"/>
      <rect x="42" y="20" width="15" height="12" rx="2" fill="#00D4FF" fill-opacity="0.4"/>
      <line x1="20" y1="40" x2="35" y2="40"/><line x1="20" y1="47" x2="55" y2="47"/>
    </g>
    <text x="110" y="405" text-anchor="middle" font-family="Arial, sans-serif" font-size="13" fill="#FFFFFF" font-weight="600">AI算力</text>
    <text x="110" y="423" text-anchor="middle" font-family="Arial, sans-serif" font-size="10" fill="#00D4FF" opacity="0.7">基础设施底座</text>
  </g>
  <g>
    <rect x="250" y="280" width="160" height="150" rx="8" fill="#111827" stroke="#00D4FF" stroke-opacity="0.2"/>
    <rect x="250" y="280" width="160" height="40" rx="8" fill="#00D4FF" fill-opacity="0.1"/>
    <text x="330" y="305" text-anchor="middle" font-family="Arial, sans-serif" font-size="11" fill="#00D4FF" letter-spacing="2">05</text>
    <g transform="translate(290, 320)" fill="none" stroke="#00D4FF" stroke-width="2" stroke-linecap="round">
      <circle cx="40" cy="30" r="22"/>
      <ellipse cx="40" cy="30" rx="10" ry="22" stroke-opacity="0.5"/>
      <line x1="18" y1="30" x2="62" y2="30"/><line x1="40" y1="8" x2="40" y2="52"/>
      <path d="M18 18 Q40 25 62 18" stroke-opacity="0.5"/>
      <path d="M18 42 Q40 35 62 42" stroke-opacity="0.5"/>
    </g>
    <text x="330" y="405" text-anchor="middle" font-family="Arial, sans-serif" font-size="13" fill="#FFFFFF" font-weight="600">全球治理</text>
    <text x="330" y="423" text-anchor="middle" font-family="Arial, sans-serif" font-size="10" fill="#00D4FF" opacity="0.7">上海宣言行动</text>
  </g>
  <g>
    <rect x="470" y="280" width="160" height="150" rx="8" fill="#111827" stroke="#00D4FF" stroke-opacity="0.2"/>
    <rect x="470" y="280" width="160" height="40" rx="8" fill="#00D4FF" fill-opacity="0.1"/>
    <text x="550" y="305" text-anchor="middle" font-family="Arial, sans-serif" font-size="11" fill="#00D4FF" letter-spacing="2">06</text>
    <g transform="translate(510, 320)" fill="none" stroke="#00D4FF" stroke-width="2" stroke-linecap="round">
      <rect x="10" y="20" width="60" height="30" rx="6"/>
      <circle cx="22" cy="20" r="6"/><circle cx="58" cy="20" r="6"/>
      <circle cx="22" cy="50" r="6"/><circle cx="58" cy="50" r="6"/>
      <line x1="25" y1="10" x2="55" y2="10" stroke-opacity="0.5"/>
      <rect x="25" y="28" width="30" height="14" rx="2" stroke-opacity="0.5"/>
    </g>
    <text x="550" y="405" text-anchor="middle" font-family="Arial, sans-serif" font-size="13" fill="#FFFFFF" font-weight="600">智能驾驶</text>
    <text x="550" y="423" text-anchor="middle" font-family="Arial, sans-serif" font-size="10" fill="#00D4FF" opacity="0.7">低空经济</text>
  </g>
  <!-- Row 3 -->
  <g>
    <rect x="30" y="455" width="160" height="150" rx="8" fill="#111827" stroke="#00D4FF" stroke-opacity="0.2"/>
    <rect x="30" y="455" width="160" height="40" rx="8" fill="#00D4FF" fill-opacity="0.1"/>
    <text x="110" y="480" text-anchor="middle" font-family="Arial, sans-serif" font-size="11" fill="#00D4FF" letter-spacing="2">07</text>
    <g transform="translate(70, 495)" fill="none" stroke="#00D4FF" stroke-width="2" stroke-linecap="round">
      <rect x="5" y="35" width="70" height="25" rx="2"/><rect x="10" y="20" width="20" height="15"/>
      <rect x="35" y="10" width="15" height="25"/><rect x="55" y="20" width="15" height="15"/>
      <line x1="18" y1="10" x2="18" y2="20"/><line x1="42" y1="2" x2="42" y2="10"/><line x1="62" y1="10" x2="62" y2="20"/>
    </g>
    <text x="110" y="580" text-anchor="middle" font-family="Arial, sans-serif" font-size="13" fill="#FFFFFF" font-weight="600">行业赋能</text>
    <text x="110" y="598" text-anchor="middle" font-family="Arial, sans-serif" font-size="10" fill="#00D4FF" opacity="0.7">AI+深度渗透</text>
  </g>
  <g>
    <rect x="250" y="455" width="160" height="150" rx="8" fill="#111827" stroke="#00D4FF" stroke-opacity="0.2"/>
    <rect x="250" y="455" width="160" height="40" rx="8" fill="#00D4FF" fill-opacity="0.1"/>
    <text x="330" y="480" text-anchor="middle" font-family="Arial, sans-serif" font-size="11" fill="#00D4FF" letter-spacing="2">08</text>
    <g transform="translate(290, 495)" fill="none" stroke="#00D4FF" stroke-width="2" stroke-linecap="round">
      <line x1="5" y1="55" x2="75" y2="55"/><line x1="5" y1="5" x2="5" y2="55"/>
      <polyline points="10,45 25,35 40,40 55,20 70,10" stroke-width="2.5"/>
      <circle cx="70" cy="10" r="4" fill="#00D4FF"/>
    </g>
    <text x="330" y="580" text-anchor="middle" font-family="Arial, sans-serif" font-size="13" fill="#FFFFFF" font-weight="600">创投生态</text>
    <text x="330" y="598" text-anchor="middle" font-family="Arial, sans-serif" font-size="10" fill="#00D4FF" opacity="0.7">200+项目路演</text>
  </g>
  <g>
    <rect x="470" y="455" width="160" height="150" rx="8" fill="#111827" stroke="#00D4FF" stroke-opacity="0.2"/>
    <rect x="470" y="455" width="160" height="40" rx="8" fill="#00D4FF" fill-opacity="0.1"/>
    <text x="550" y="480" text-anchor="middle" font-family="Arial, sans-serif" font-size="11" fill="#00D4FF" letter-spacing="2">09</text>
    <g transform="translate(510, 495)" fill="none" stroke="#00D4FF" stroke-width="2" stroke-linecap="round">
      <polygon points="40,5 46,28 70,28 50,43 58,67 40,52 22,67 30,43 10,28 34,28"/>
    </g>
    <text x="550" y="580" text-anchor="middle" font-family="Arial, sans-serif" font-size="13" fill="#FFFFFF" font-weight="600">青年力量</text>
    <text x="550" y="598" text-anchor="middle" font-family="Arial, sans-serif" font-size="10" fill="#00D4FF" opacity="0.7">云帆奖与科学家</text>
  </g>
</svg>