<svg xmlns="http://www.w3.org/2000/svg" viewBox="0 0 800 400">
  <defs>
    <linearGradient id="bg4" x1="0%" y1="0%" x2="100%" y2="100%">
      <stop offset="0%" stop-color="#0A1628"/>
      <stop offset="100%" stop-color="#0D1F3C"/>
    </linearGradient>
    <filter id="glow4">
      <feGaussianBlur stdDeviation="5" result="coloredBlur"/>
      <feMerge><feMergeNode in="coloredBlur"/><feMergeNode in="SourceGraphic"/></feMerge>
    </filter>
    <linearGradient id="numGrad" x1="0%" y1="0%" x2="0%" y2="100%">
      <stop offset="0%" stop-color="#00D4FF"/>
      <stop offset="100%" stop-color="#0080CC"/>
    </linearGradient>
  </defs>
  <rect width="800" height="400" fill="url(#bg4)"/>
  <text x="400" y="45" text-anchor="middle" font-family="Arial, sans-serif" font-size="18" fill="#FFFFFF" font-weight="600" letter-spacing="6">WAIC 2026 关键数据</text>
  <line x1="200" y1="60" x2="600" y2="60" stroke="#00D4FF" stroke-opacity="0.25" stroke-width="1"/>
  <g transform="translate(40, 80)">
    <rect width="160" height="220" rx="12" fill="#0D1F3C" stroke="#00D4FF" stroke-opacity="0.15" stroke-width="1"/>
    <text x="80" y="100" text-anchor="middle" font-family="Arial Black, sans-serif" font-size="60" font-weight="900" fill="url(#numGrad)" filter="url(#glow4)">800+</text>
    <line x1="20" y1="120" x2="140" y2="120" stroke="#00D4FF" stroke-opacity="0.2" stroke-width="1"/>
    <text x="80" y="150" text-anchor="middle" font-family="Arial, sans-serif" font-size="14" fill="#FFFFFF" font-weight="600">参展企业</text>
    <text x="80" y="172" text-anchor="middle" font-family="Arial, sans-serif" font-size="11" fill="#00D4FF" opacity="0.7">市外及国际企业</text>
    <text x="80" y="190" text-anchor="middle" font-family="Arial, sans-serif" font-size="11" fill="#00D4FF" opacity="0.7">占比超 50%</text>
    <g transform="translate(55, 198)" fill="none" stroke="#00D4FF" stroke-opacity="0.5" stroke-width="1.5" stroke-linecap="round">
      <rect x="0" y="0" width="50" height="10" rx="2"/>
      <rect x="5" y="12" width="40" height="10" rx="2"/>
      <rect x="3" y="24" width="44" height="10" rx="2"/>
    </g>
  </g>
  <g transform="translate(220, 80)">
    <rect width="160" height="220" rx="12" fill="#0D1F3C" stroke="#00D4FF" stroke-opacity="0.15" stroke-width="1"/>
    <text x="80" y="100" text-anchor="middle" font-family="Arial Black, sans-serif" font-size="44" font-weight="900" fill="url(#numGrad)" filter="url(#glow4)">7万</text>
    <text x="120" y="70" font-family="Arial, sans-serif" font-size="20" fill="#00D4FF" opacity="0.8">㎡+</text>
    <line x1="20" y1="120" x2="140" y2="120" stroke="#00D4FF" stroke-opacity="0.2" stroke-width="1"/>
    <text x="80" y="150" text-anchor="middle" font-family="Arial, sans-serif" font-size="14" fill="#FFFFFF" font-weight="600">展览面积</text>
    <text x="80" y="172" text-anchor="middle" font-family="Arial, sans-serif" font-size="11" fill="#00D4FF" opacity="0.7">首次突破</text>
    <text x="80" y="190" text-anchor="middle" font-family="Arial, sans-serif" font-size="11" fill="#00D4FF" opacity="0.7">历届之最</text>
    <g transform="translate(55, 198)" fill="none" stroke="#00D4FF" stroke-opacity="0.5" stroke-width="1.5" stroke-linecap="round">
      <rect x="0" y="0" width="50" height="50" rx="4"/>
      <line x1="0" y1="15" x2="50" y2="15" stroke-opacity="0.4"/>
      <line x1="0" y1="30" x2="50" y2="30" stroke-opacity="0.4"/>
      <line x1="15" y1="0" x2="15" y2="50" stroke-opacity="0.4"/>
      <line x1="35" y1="0" x2="35" y2="50" stroke-opacity="0.4"/>
    </g>
  </g>
  <g transform="translate(400, 80)">
    <rect width="160" height="220" rx="12" fill="#0D1F3C" stroke="#00D4FF" stroke-opacity="0.15" stroke-width="1"/>
    <text x="80" y="100" text-anchor="middle" font-family="Arial Black, sans-serif" font-size="60" font-weight="900" fill="url(#numGrad)" filter="url(#glow4)">30+</text>
    <line x1="20" y1="120" x2="140" y2="120" stroke="#00D4FF" stroke-opacity="0.2" stroke-width="1"/>
    <text x="80" y="150" text-anchor="middle" font-family="Arial, sans-serif" font-size="14" fill="#FFFFFF" font-weight="600">国家参与</text>
    <text x="80" y="172" text-anchor="middle" font-family="Arial, sans-serif" font-size="11" fill="#00D4FF" opacity="0.7">覆盖全球</text>
    <text x="80" y="190" text-anchor="middle" font-family="Arial, sans-serif" font-size="11" fill="#00D4FF" opacity="0.7">70+ 国家和地区</text>
    <g transform="translate(55, 198)" fill="none" stroke="#00D4FF" stroke-opacity="0.5" stroke-width="1.5" stroke-linecap="round">
      <circle cx="25" cy="25" r="22"/>
      <line x1="3" y1="25" x2="47" y2="25"/>
      <ellipse cx="25" cy="25" rx="10" ry="22" stroke-opacity="0.4"/>
    </g>
  </g>
  <g transform="translate(580, 80)">
    <rect width="160" height="220" rx="12" fill="#0D1F3C" stroke="#00D4FF" stroke-opacity="0.15" stroke-width="1"/>
    <text x="80" y="100" text-anchor="middle" font-family="Arial Black, sans-serif" font-size="52" font-weight="900" fill="url(#numGrad)" filter="url(#glow4)">1500+</text>
    <line x1="20" y1="120" x2="140" y2="120" stroke="#00D4FF" stroke-opacity="0.2" stroke-width="1"/>
    <text x="80" y="150" text-anchor="middle" font-family="Arial, sans-serif" font-size="14" fill="#FFFFFF" font-weight="600">全球嘉宾</text>
    <text x="80" y="172" text-anchor="middle" font-family="Arial, sans-serif" font-size="11" fill="#00D4FF" opacity="0.7">1000+ 位出席</text>
    <text x="80" y="190" text-anchor="middle" font-family="Arial, sans-serif" font-size="11" fill="#00D4FF" opacity="0.7">图灵奖得主 20+</text>
    <g transform="translate(55, 198)" fill="none" stroke="#00D4FF" stroke-opacity="0.5" stroke-width="1.5" stroke-linecap="round">
      <circle cx="15" cy="8" r="7"/><line x1="15" y1="15" x2="15" y2="35"/><line x1="5" y1="22" x2="25" y2="22"/>
      <circle cx="40" cy="8" r="7"/><line x1="40" y1="15" x2="40" y2="35"/><line x1="30" y1="22" x2="50" y2="22"/>
    </g>
  </g>
  <rect x="0" y="360" width="800" height="40" fill="#00D4FF" fill-opacity="0.05"/>
  <text x="400" y="386" text-anchor="middle" font-family="Arial, sans-serif" font-size="12" fill="#00D4FF" opacity="0.6" letter-spacing="3">2026.07.17—20  ·  上海世博展览馆  ·  worldaic.com.cn</text>
</svg>