<svg xmlns="http://www.w3.org/2000/svg" viewBox="0 0 900 900">
  <defs>
    <linearGradient id="bgGrad4" x1="0%" y1="0%" x2="100%" y2="100%">
      <stop offset="0%" stop-color="#0B1426"/>
      <stop offset="100%" stop-color="#0F1D35"/>
    </linearGradient>
    <linearGradient id="cardGrad" x1="0%" y1="0%" x2="0%" y2="100%">
      <stop offset="0%" stop-color="#1E2A42"/>
      <stop offset="100%" stop-color="#162035"/>
    </linearGradient>
    <linearGradient id="purpleGlow" x1="0%" y1="0%" x2="100%" y2="100%">
      <stop offset="0%" stop-color="#7B5CF5"/>
      <stop offset="100%" stop-color="#4A90D9"/>
    </linearGradient>
    <filter id="cardGlow">
      <feGaussianBlur stdDeviation="3" result="blur"/>
      <feMerge><feMergeNode in="blur"/><feMergeNode in="SourceGraphic"/></feMerge>
    </filter>
    <filter id="numGlow">
      <feGaussianBlur stdDeviation="2" result="blur"/>
      <feMerge><feMergeNode in="blur"/><feMergeNode in="SourceGraphic"/></feMerge>
    </filter>
  </defs>
  <rect width="900" height="900" fill="url(#bgGrad4)"/>

  <!-- Title -->
  <text x="450" y="45" text-anchor="middle" font-family="Arial, sans-serif" font-size="22" font-weight="700" fill="#FFFFFF" letter-spacing="4">WAIC 2026</text>
  <text x="450" y="72" text-anchor="middle" font-family="Arial, sans-serif" font-size="13" fill="#00D4FF" letter-spacing="6">九大看点</text>
  <line x1="300" y1="82" x2="600" y2="82" stroke="#7B5CF5" stroke-opacity="0.3" stroke-width="1"/>

  <!-- 3x3 cards: each 260x220 at positions (35,95), (320,95), (605,95), (35,340), (320,340), (605,340), (35,585), (320,585), (605,585) -->
  <!-- Card 1: 展览规模 -->
  <rect x="35" y="95" width="260" height="220" rx="10" fill="url(#cardGrad)" stroke="#7B5CF5" stroke-opacity="0.25"/>
  <text x="48" y="120" font-family="Arial, sans-serif" font-size="11" fill="#7B5CF5" font-weight="700" letter-spacing="2">01</text>
  <g transform="translate(165,165)" fill="none" stroke="#7B5CF5" stroke-width="2" stroke-linecap="round" stroke-linejoin="round">
    <rect x="-40" y="-30" width="80" height="60" rx="4"/>
    <line x1="-40" y1="-10" x2="40" y2="-10"/>
    <line x1="-40" y1="10" x2="40" y2="10"/>
    <line x1="-20" y1="-30" x2="-20" y2="30"/>
    <line x1="0" y1="-30" x2="0" y2="30"/>
    <line x1="20" y1="-30" x2="20" y2="30"/>
  </g>
  <text x="165" y="260" text-anchor="middle" font-family="Arial, sans-serif" font-size="15" fill="#FFFFFF" font-weight="600">展览规模</text>
  <text x="165" y="280" text-anchor="middle" font-family="Arial, sans-serif" font-size="11" fill="#A8B8D8">创历届之最</text>

  <!-- Card 2: 大模型 -->
  <rect x="320" y="95" width="260" height="220" rx="10" fill="url(#cardGrad)" stroke="#7B5CF5" stroke-opacity="0.25"/>
  <text x="333" y="120" font-family="Arial, sans-serif" font-size="11" fill="#7B5CF5" font-weight="700" letter-spacing="2">02</text>
  <g transform="translate(450,165)" fill="none" stroke="#7B5CF5" stroke-width="2" stroke-linecap="round">
    <rect x="-40" y="10" width="80" height="30" rx="4"/>
    <rect x="-35" y="-30" width="30" height="25" rx="3"/>
    <rect x="5" y="-30" width="30" height="25" rx="3"/>
    <line x1="-20" y1="-30" x2="-20" y2="-5" stroke-opacity="0.4"/>
    <line x1="20" y1="-30" x2="20" y2="-5" stroke-opacity="0.4"/>
  </g>
  <text x="450" y="260" text-anchor="middle" font-family="Arial, sans-serif" font-size="15" fill="#FFFFFF" font-weight="600">大模型</text>
  <text x="450" y="280" text-anchor="middle" font-family="Arial, sans-serif" font-size="11" fill="#A8B8D8">军备竞赛升级</text>

  <!-- Card 3: 具身智能 -->
  <rect x="605" y="95" width="260" height="220" rx="10" fill="url(#cardGrad)" stroke="#7B5CF5" stroke-opacity="0.25"/>
  <text x="618" y="120" font-family="Arial, sans-serif" font-size="11" fill="#7B5CF5" font-weight="700" letter-spacing="2">03</text>
  <g transform="translate(735,165)" fill="none" stroke="#7B5CF5" stroke-width="2" stroke-linecap="round">
    <circle cx="0" cy="-10" r="18"/>
    <circle cx="-7" cy="-15" r="3" fill="#7B5CF5"/>
    <circle cx="7" cy="-15" r="3" fill="#7B5CF5"/>
    <path d="M-7 -5 Q0 2 7 -5" fill="none"/>
    <line x1="0" y1="8" x2="0" y2="30"/>
    <line x1="-18" y1="20" x2="18" y2="20"/>
    <line x1="-12" y1="30" x2="-18" y2="40"/>
    <line x1="12" y1="30" x2="18" y2="40"/>
  </g>
  <text x="735" y="260" text-anchor="middle" font-family="Arial, sans-serif" font-size="15" fill="#FFFFFF" font-weight="600">具身智能</text>
  <text x="735" y="280" text-anchor="middle" font-family="Arial, sans-serif" font-size="11" fill="#A8B8D8">人形机器人爆发</text>

  <!-- Card 4: 算力基建 -->
  <rect x="35" y="340" width="260" height="220" rx="10" fill="url(#cardGrad)" stroke="#7B5CF5" stroke-opacity="0.25"/>
  <text x="48" y="365" font-family="Arial, sans-serif" font-size="11" fill="#7B5CF5" font-weight="700" letter-spacing="2">04</text>
  <g transform="translate(165,410)" fill="none" stroke="#7B5CF5" stroke-width="2" stroke-linecap="round">
    <rect x="-40" y="-30" width="80" height="60" rx="4"/>
    <line x1="-40" y1="-15" x2="40" y2="-15"/>
    <rect x="-32" y="-10" width="14" height="10" rx="2" fill="#7B5CF5" fill-opacity="0.3"/>
    <rect x="-14" y="-10" width="14" height="10" rx="2" fill="#7B5CF5" fill-opacity="0.3"/>
    <rect x="4" y="-10" width="14" height="10" rx="2" fill="#7B5CF5" fill-opacity="0.3"/>
    <line x1="-32" y1="8" x2="-14" y2="8"/>
    <line x1="-14" y1="8" x2="4" y2="8"/>
    <line x1="4" y1="8" x2="22" y2="8"/>
    <line x1="-30" y1="22" x2="-10" y2="22"/>
    <line x1="-10" y1="22" x2="10" y2="22"/>
  </g>
  <text x="165" y="505" text-anchor="middle" font-family="Arial, sans-serif" font-size="15" fill="#FFFFFF" font-weight="600">算力基建</text>
  <text x="165" y="525" text-anchor="middle" font-family="Arial, sans-serif" font-size="11" fill="#A8B8D8">AI发展底座</text>

  <!-- Card 5: AI治理 -->
  <rect x="320" y="340" width="260" height="220" rx="10" fill="url(#cardGrad)" stroke="#7B5CF5" stroke-opacity="0.25"/>
  <text x="333" y="365" font-family="Arial, sans-serif" font-size="11" fill="#7B5CF5" font-weight="700" letter-spacing="2">05</text>
  <g transform="translate(450,410)" fill="none" stroke="#7B5CF5" stroke-width="2" stroke-linecap="round">
    <circle cx="0" cy="5" r="28"/>
    <ellipse cx="0" cy="5" rx="12" ry="28" stroke-opacity="0.4"/>
    <line x1="-28" y1="5" x2="28" y2="5"/>
    <line x1="0" y1="-23" x2="0" y2="33"/>
    <path d="M-28 -17 Q0 -25 28 -17" fill="none" stroke-opacity="0.4"/>
    <path d="M-28 27 Q0 19 28 27" fill="none" stroke-opacity="0.4"/>
  </g>
  <text x="450" y="505" text-anchor="middle" font-family="Arial, sans-serif" font-size="15" fill="#FFFFFF" font-weight="600">AI全球治理</text>
  <text x="450" y="525" text-anchor="middle" font-family="Arial, sans-serif" font-size="11" fill="#A8B8D8">上海宣言行动</text>

  <!-- Card 6: 智能驾驶 -->
  <rect x="605" y="340" width="260" height="220" rx="10" fill="url(#cardGrad)" stroke="#7B5CF5" stroke-opacity="0.25"/>
  <text x="618" y="365" font-family="Arial, sans-serif" font-size="11" fill="#7B5CF5" font-weight="700" letter-spacing="2">06</text>
  <g transform="translate(735,410)" fill="none" stroke="#7B5CF5" stroke-width="2" stroke-linecap="round">
    <rect x="-40" y="0" width="80" height="35" rx="6"/>
    <circle cx="-25" cy="0" r="8"/>
    <circle cx="25" cy="0" r="8"/>
    <circle cx="-25" cy="35" r="8"/>
    <circle cx="25" cy="35" r="8"/>
    <line x1="-30" y1="-12" x2="30" y2="-12" stroke-opacity="0.4"/>
    <rect x="-20" y="10" width="40" height="12" rx="2" fill="#7B5CF5" fill-opacity="0.2"/>
  </g>
  <text x="735" y="505" text-anchor="middle" font-family="Arial, sans-serif" font-size="15" fill="#FFFFFF" font-weight="600">智能驾驶</text>
  <text x="735" y="525" text-anchor="middle" font-family="Arial, sans-serif" font-size="11" fill="#A8B8D8">低空经济</text>

  <!-- Card 7: 行业赋能 -->
  <rect x="35" y="585" width="260" height="220" rx="10" fill="url(#cardGrad)" stroke="#7B5CF5" stroke-opacity="0.25"/>
  <text x="48" y="610" font-family="Arial, sans-serif" font-size="11" fill="#7B5CF5" font-weight="700" letter-spacing="2">07</text>
  <g transform="translate(165,655)" fill="none" stroke="#7B5CF5" stroke-width="2" stroke-linecap="round">
    <line x1="-40" y1="25" x2="40" y2="25"/>
    <line x1="-40" y1="-35" x2="-40" y2="25"/>
    <polyline points="-30,10 -15,0 0,15 15,-10 30,-25" stroke-width="2.5"/>
    <circle cx="30" cy="-25" r="4" fill="#7B5CF5"/>
    <rect x="-40" y="28" width="20" height="12" rx="2" fill="#7B5CF5" fill-opacity="0.3"/>
    <rect x="-15" y="33" width="15" height="7" rx="1" fill="#7B5CF5" fill-opacity="0.2"/>
    <rect x="5" y="33" width="18" height="7" rx="1" fill="#7B5CF5" fill-opacity="0.2"/>
  </g>
  <text x="165" y="750" text-anchor="middle" font-family="Arial, sans-serif" font-size="15" fill="#FFFFFF" font-weight="600">行业赋能</text>
  <text x="165" y="770" text-anchor="middle" font-family="Arial, sans-serif" font-size="11" fill="#A8B8D8">AI+深度渗透</text>

  <!-- Card 8: 创投生态 -->
  <rect x="320" y="585" width="260" height="220" rx="10" fill="url(#cardGrad)" stroke="#7B5CF5" stroke-opacity="0.25"/>
  <text x="333" y="610" font-family="Arial, sans-serif" font-size="11" fill="#7B5CF5" font-weight="700" letter-spacing="2">08</text>
  <g transform="translate(450,655)" fill="none" stroke="#7B5CF5" stroke-width="2" stroke-linecap="round">
    <line x1="-35" y1="35" x2="35" y2="35"/>
    <line x1="-35" y1="-35" x2="-35" y2="35"/>
    <rect x="-35" y="25" width="70" height="10" rx="2" fill="#7B5CF5" fill-opacity="0.15"/>
    <rect x="-35" y="10" width="55" height="10" rx="2" fill="#7B5CF5" fill-opacity="0.15"/>
    <rect x="-35" y="-5" width="40" height="10" rx="2" fill="#7B5CF5" fill-opacity="0.15"/>
    <rect x="-35" y="-20" width="25" height="10" rx="2" fill="#7B5CF5" fill-opacity="0.15"/>
    <rect x="-35" y="-35" width="12" height="10" rx="2" fill="#7B5CF5" fill-opacity="0.3"/>
    <circle cx="5" cy="-35" r="3" fill="#7B5CF5"/>
  </g>
  <text x="450" y="750" text-anchor="middle" font-family="Arial, sans-serif" font-size="15" fill="#FFFFFF" font-weight="600">创投生态</text>
  <text x="450" y="770" text-anchor="middle" font-family="Arial, sans-serif" font-size="11" fill="#A8B8D8">200+项目路演</text>

  <!-- Card 9: 青年力量 -->
  <rect x="605" y="585" width="260" height="220" rx="10" fill="url(#cardGrad)" stroke="#7B5CF5" stroke-opacity="0.25"/>
  <text x="618" y="610" font-family="Arial, sans-serif" font-size="11" fill="#7B5CF5" font-weight="700" letter-spacing="2">09</text>
  <g transform="translate(735,655)" fill="none" stroke="#7B5CF5" stroke-width="2" stroke-linecap="round">
    <polygon points="0,-40 10,-12 40,-12 16,5 26,35 0,18 -26,35 -16,5 -40,-12 -10,-12"/>
  </g>
  <text x="735" y="750" text-anchor="middle" font-family="Arial, sans-serif" font-size="15" fill="#FFFFFF" font-weight="600">青年力量</text>
  <text x="735" y="770" text-anchor="middle" font-family="Arial, sans-serif" font-size="11" fill="#A8B8D8">云帆奖与科学家</text>
</svg>